<svg width="512" height="512" viewBox="0 0 512 512" fill="none" xmlns="http://www.w3.org/2000/svg">
<path d="M128 128C128 57.3075 185.308 0 256 0H448C483.346 0 512 28.6538 512 64V256C512 326.692 454.692 384 384 384H192C156.654 384 128 355.346 128 320V128Z" fill="#48B7B3"/>
<path d="M0 256C0 185.308 57.3076 128 128 128L320 128C355.346 128 384 156.654 384 192V384C384 454.692 326.692 512 256 512H64C28.6538 512 0 483.346 0 448V256Z" fill="#5948B7"/>
<path d="M384.721 391.285L407.154 413.718L345.959 474.913L323.526 452.48L384.721 391.285Z" fill="#5948B7"/>
<path d="M452.141 324L474.574 346.433L411.04 409.967L388.606 387.534L452.141 324Z" fill="#48B7B3"/>
<path d="M166 37L188.433 59.4331L123.703 124.164L101.27 101.73L166 37Z" fill="#48B7B3"/>
<path d="M99.1953 104L121.628 126.433L60.4336 187.628L38.0004 165.195L99.1953 104Z" fill="#5948B7"/>
<path d="M64 192C64 121.308 121.308 64 192 64H384C419.346 64 448 92.6538 448 128V320C448 390.692 390.692 448 320 448H128C92.6538 448 64 419.346 64 384V192Z" fill="#1C1C1C"/>
</svg>
